<svg xmlns="http://www.w3.org/2000/svg" viewBox="0 0 770 180" width="770" height="180">
  <g fill="#FFFFFF">
    <rect x="280" y="20" width="40" height="10"/>
    <rect x="40" y="30" width="40" height="10"/>
    <rect x="270" y="30" width="20" height="10"/>
    <rect x="310" y="30" width="20" height="10"/>
    <rect x="410" y="30" width="80" height="10"/>
    <rect x="540" y="30" width="40" height="10"/>
    <rect x="590" y="30" width="40" height="10"/>
    <rect x="670" y="30" width="80" height="10"/>
    <rect x="30" y="40" width="20" height="10"/>
    <rect x="70" y="40" width="20" height="10"/>
    <rect x="270" y="40" width="10" height="10"/>
    <rect x="290" y="40" width="20" height="10"/>
    <rect x="320" y="40" width="50" height="10"/>
    <rect x="400" y="40" width="20" height="10"/>
    <rect x="480" y="40" width="20" height="10"/>
    <rect x="530" y="40" width="20" height="10"/>
    <rect x="570" y="40" width="30" height="10"/>
    <rect x="620" y="40" width="20" height="10"/>
    <rect x="660" y="40" width="20" height="10"/>
    <rect x="740" y="40" width="20" height="10"/>
    <rect x="20" y="50" width="20" height="10"/>
    <rect x="50" y="50" width="20" height="10"/>
    <rect x="80" y="50" width="20" height="10"/>
    <rect x="270" y="50" width="10" height="10"/>
    <rect x="290" y="50" width="20" height="10"/>
    <rect x="320" y="50" width="20" height="10"/>
    <rect x="360" y="50" width="20" height="10"/>
    <rect x="400" y="50" width="10" height="10"/>
    <rect x="420" y="50" width="60" height="10"/>
    <rect x="490" y="50" width="10" height="10"/>
    <rect x="530" y="50" width="10" height="10"/>
    <rect x="550" y="50" width="20" height="10"/>
    <rect x="580" y="50" width="10" height="10"/>
    <rect x="600" y="50" width="20" height="10"/>
    <rect x="630" y="50" width="10" height="10"/>
    <rect x="660" y="50" width="10" height="10"/>
    <rect x="680" y="50" width="60" height="10"/>
    <rect x="750" y="50" width="10" height="10"/>
    <rect x="10" y="60" width="20" height="10"/>
    <rect x="40" y="60" width="40" height="10"/>
    <rect x="90" y="60" width="20" height="10"/>
    <rect x="270" y="60" width="10" height="10"/>
    <rect x="290" y="60" width="20" height="10"/>
    <rect x="320" y="60" width="10" height="10"/>
    <rect x="340" y="60" width="20" height="10"/>
    <rect x="370" y="60" width="10" height="10"/>
    <rect x="400" y="60" width="10" height="10"/>
    <rect x="420" y="60" width="60" height="10"/>
    <rect x="490" y="60" width="10" height="10"/>
    <rect x="530" y="60" width="10" height="10"/>
    <rect x="550" y="60" width="20" height="10"/>
    <rect x="580" y="60" width="10" height="10"/>
    <rect x="600" y="60" width="20" height="10"/>
    <rect x="630" y="60" width="10" height="10"/>
    <rect x="660" y="60" width="10" height="10"/>
    <rect x="680" y="60" width="60" height="10"/>
    <rect x="750" y="60" width="10" height="10"/>
    <rect x="0" y="70" width="20" height="10"/>
    <rect x="30" y="70" width="60" height="10"/>
    <rect x="100" y="70" width="20" height="10"/>
    <rect x="270" y="70" width="10" height="10"/>
    <rect x="290" y="70" width="20" height="10"/>
    <rect x="330" y="70" width="30" height="10"/>
    <rect x="370" y="70" width="10" height="10"/>
    <rect x="400" y="70" width="20" height="10"/>
    <rect x="440" y="70" width="20" height="10"/>
    <rect x="480" y="70" width="20" height="10"/>
    <rect x="530" y="70" width="10" height="10"/>
    <rect x="550" y="70" width="20" height="10"/>
    <rect x="580" y="70" width="10" height="10"/>
    <rect x="600" y="70" width="20" height="10"/>
    <rect x="630" y="70" width="10" height="10"/>
    <rect x="660" y="70" width="20" height="10"/>
    <rect x="700" y="70" width="20" height="10"/>
    <rect x="740" y="70" width="20" height="10"/>
    <rect x="0" y="80" width="10" height="10"/>
    <rect x="20" y="80" width="80" height="10"/>
    <rect x="110" y="80" width="10" height="10"/>
    <rect x="270" y="80" width="10" height="10"/>
    <rect x="290" y="80" width="20" height="10"/>
    <rect x="320" y="80" width="30" height="10"/>
    <rect x="360" y="80" width="20" height="10"/>
    <rect x="410" y="80" width="20" height="10"/>
    <rect x="440" y="80" width="20" height="10"/>
    <rect x="470" y="80" width="20" height="10"/>
    <rect x="530" y="80" width="10" height="10"/>
    <rect x="550" y="80" width="20" height="10"/>
    <rect x="600" y="80" width="20" height="10"/>
    <rect x="630" y="80" width="10" height="10"/>
    <rect x="670" y="80" width="20" height="10"/>
    <rect x="700" y="80" width="20" height="10"/>
    <rect x="730" y="80" width="20" height="10"/>
    <rect x="0" y="90" width="20" height="10"/>
    <rect x="30" y="90" width="10" height="10"/>
    <rect x="60" y="90" width="10" height="10"/>
    <rect x="80" y="90" width="10" height="10"/>
    <rect x="100" y="90" width="20" height="10"/>
    <rect x="270" y="90" width="10" height="10"/>
    <rect x="290" y="90" width="50" height="10"/>
    <rect x="350" y="90" width="20" height="10"/>
    <rect x="420" y="90" width="10" height="10"/>
    <rect x="440" y="90" width="20" height="10"/>
    <rect x="470" y="90" width="10" height="10"/>
    <rect x="530" y="90" width="10" height="10"/>
    <rect x="550" y="90" width="20" height="10"/>
    <rect x="580" y="90" width="10" height="10"/>
    <rect x="600" y="90" width="20" height="10"/>
    <rect x="630" y="90" width="10" height="10"/>
    <rect x="680" y="90" width="10" height="10"/>
    <rect x="700" y="90" width="20" height="10"/>
    <rect x="730" y="90" width="10" height="10"/>
    <rect x="10" y="100" width="10" height="10"/>
    <rect x="30" y="100" width="10" height="10"/>
    <rect x="60" y="100" width="10" height="10"/>
    <rect x="80" y="100" width="10" height="10"/>
    <rect x="100" y="100" width="10" height="10"/>
    <rect x="270" y="100" width="10" height="10"/>
    <rect x="290" y="100" width="40" height="10"/>
    <rect x="340" y="100" width="20" height="10"/>
    <rect x="420" y="100" width="10" height="10"/>
    <rect x="440" y="100" width="20" height="10"/>
    <rect x="470" y="100" width="10" height="10"/>
    <rect x="530" y="100" width="10" height="10"/>
    <rect x="550" y="100" width="70" height="10"/>
    <rect x="630" y="100" width="10" height="10"/>
    <rect x="680" y="100" width="10" height="10"/>
    <rect x="700" y="100" width="20" height="10"/>
    <rect x="730" y="100" width="10" height="10"/>
    <rect x="10" y="110" width="10" height="10"/>
    <rect x="30" y="110" width="40" height="10"/>
    <rect x="80" y="110" width="10" height="10"/>
    <rect x="100" y="110" width="10" height="10"/>
    <rect x="270" y="110" width="10" height="10"/>
    <rect x="290" y="110" width="50" height="10"/>
    <rect x="350" y="110" width="20" height="10"/>
    <rect x="410" y="110" width="20" height="10"/>
    <rect x="440" y="110" width="20" height="10"/>
    <rect x="470" y="110" width="20" height="10"/>
    <rect x="530" y="110" width="10" height="10"/>
    <rect x="550" y="110" width="70" height="10"/>
    <rect x="630" y="110" width="10" height="10"/>
    <rect x="670" y="110" width="20" height="10"/>
    <rect x="700" y="110" width="20" height="10"/>
    <rect x="730" y="110" width="20" height="10"/>
    <rect x="10" y="120" width="10" height="10"/>
    <rect x="30" y="120" width="40" height="10"/>
    <rect x="80" y="120" width="10" height="10"/>
    <rect x="100" y="120" width="10" height="10"/>
    <rect x="270" y="120" width="10" height="10"/>
    <rect x="290" y="120" width="20" height="10"/>
    <rect x="320" y="120" width="30" height="10"/>
    <rect x="360" y="120" width="20" height="10"/>
    <rect x="400" y="120" width="20" height="10"/>
    <rect x="440" y="120" width="20" height="10"/>
    <rect x="480" y="120" width="20" height="10"/>
    <rect x="530" y="120" width="10" height="10"/>
    <rect x="550" y="120" width="30" height="10"/>
    <rect x="590" y="120" width="30" height="10"/>
    <rect x="630" y="120" width="10" height="10"/>
    <rect x="660" y="120" width="20" height="10"/>
    <rect x="700" y="120" width="20" height="10"/>
    <rect x="740" y="120" width="20" height="10"/>
    <rect x="10" y="130" width="10" height="10"/>
    <rect x="70" y="130" width="10" height="10"/>
    <rect x="100" y="130" width="10" height="10"/>
    <rect x="270" y="130" width="10" height="10"/>
    <rect x="290" y="130" width="20" height="10"/>
    <rect x="330" y="130" width="30" height="10"/>
    <rect x="370" y="130" width="10" height="10"/>
    <rect x="400" y="130" width="10" height="10"/>
    <rect x="420" y="130" width="60" height="10"/>
    <rect x="490" y="130" width="10" height="10"/>
    <rect x="530" y="130" width="10" height="10"/>
    <rect x="550" y="130" width="20" height="10"/>
    <rect x="580" y="130" width="10" height="10"/>
    <rect x="600" y="130" width="20" height="10"/>
    <rect x="630" y="130" width="10" height="10"/>
    <rect x="660" y="130" width="10" height="10"/>
    <rect x="680" y="130" width="60" height="10"/>
    <rect x="750" y="130" width="10" height="10"/>
    <rect x="10" y="140" width="100" height="10"/>
    <rect x="270" y="140" width="10" height="10"/>
    <rect x="290" y="140" width="20" height="10"/>
    <rect x="320" y="140" width="10" height="10"/>
    <rect x="340" y="140" width="20" height="10"/>
    <rect x="370" y="140" width="10" height="10"/>
    <rect x="400" y="140" width="10" height="10"/>
    <rect x="420" y="140" width="60" height="10"/>
    <rect x="490" y="140" width="10" height="10"/>
    <rect x="530" y="140" width="10" height="10"/>
    <rect x="550" y="140" width="10" height="10"/>
    <rect x="570" y="140" width="30" height="10"/>
    <rect x="610" y="140" width="10" height="10"/>
    <rect x="630" y="140" width="10" height="10"/>
    <rect x="660" y="140" width="10" height="10"/>
    <rect x="680" y="140" width="60" height="10"/>
    <rect x="750" y="140" width="10" height="10"/>
    <rect x="270" y="150" width="20" height="10"/>
    <rect x="310" y="150" width="30" height="10"/>
    <rect x="360" y="150" width="20" height="10"/>
    <rect x="400" y="150" width="20" height="10"/>
    <rect x="480" y="150" width="20" height="10"/>
    <rect x="530" y="150" width="20" height="10"/>
    <rect x="560" y="150" width="20" height="10"/>
    <rect x="590" y="150" width="20" height="10"/>
    <rect x="620" y="150" width="20" height="10"/>
    <rect x="660" y="150" width="20" height="10"/>
    <rect x="740" y="150" width="20" height="10"/>
    <rect x="280" y="160" width="40" height="10"/>
    <rect x="330" y="160" width="40" height="10"/>
    <rect x="410" y="160" width="80" height="10"/>
    <rect x="540" y="160" width="30" height="10"/>
    <rect x="600" y="160" width="30" height="10"/>
    <rect x="670" y="160" width="80" height="10"/>
  </g>
  <g fill="#000000">
    <rect x="290" y="30" width="20" height="10"/>
    <rect x="50" y="40" width="20" height="10"/>
    <rect x="280" y="40" width="10" height="10"/>
    <rect x="310" y="40" width="10" height="10"/>
    <rect x="420" y="40" width="60" height="10"/>
    <rect x="550" y="40" width="20" height="10"/>
    <rect x="600" y="40" width="20" height="10"/>
    <rect x="680" y="40" width="60" height="10"/>
    <rect x="40" y="50" width="10" height="10"/>
    <rect x="70" y="50" width="10" height="10"/>
    <rect x="280" y="50" width="10" height="10"/>
    <rect x="310" y="50" width="10" height="10"/>
    <rect x="340" y="50" width="20" height="10"/>
    <rect x="410" y="50" width="10" height="10"/>
    <rect x="480" y="50" width="10" height="10"/>
    <rect x="540" y="50" width="10" height="10"/>
    <rect x="570" y="50" width="10" height="10"/>
    <rect x="590" y="50" width="10" height="10"/>
    <rect x="620" y="50" width="10" height="10"/>
    <rect x="670" y="50" width="10" height="10"/>
    <rect x="740" y="50" width="10" height="10"/>
    <rect x="30" y="60" width="10" height="10"/>
    <rect x="80" y="60" width="10" height="10"/>
    <rect x="280" y="60" width="10" height="10"/>
    <rect x="310" y="60" width="10" height="10"/>
    <rect x="330" y="60" width="10" height="10"/>
    <rect x="360" y="60" width="10" height="10"/>
    <rect x="410" y="60" width="10" height="10"/>
    <rect x="480" y="60" width="10" height="10"/>
    <rect x="540" y="60" width="10" height="10"/>
    <rect x="570" y="60" width="10" height="10"/>
    <rect x="590" y="60" width="10" height="10"/>
    <rect x="620" y="60" width="10" height="10"/>
    <rect x="670" y="60" width="10" height="10"/>
    <rect x="740" y="60" width="10" height="10"/>
    <rect x="20" y="70" width="10" height="10"/>
    <rect x="90" y="70" width="10" height="10"/>
    <rect x="280" y="70" width="10" height="10"/>
    <rect x="310" y="70" width="20" height="10"/>
    <rect x="360" y="70" width="10" height="10"/>
    <rect x="420" y="70" width="20" height="10"/>
    <rect x="460" y="70" width="20" height="10"/>
    <rect x="540" y="70" width="10" height="10"/>
    <rect x="570" y="70" width="10" height="10"/>
    <rect x="590" y="70" width="10" height="10"/>
    <rect x="620" y="70" width="10" height="10"/>
    <rect x="680" y="70" width="20" height="10"/>
    <rect x="720" y="70" width="20" height="10"/>
    <rect x="10" y="80" width="10" height="10"/>
    <rect x="100" y="80" width="10" height="10"/>
    <rect x="280" y="80" width="10" height="10"/>
    <rect x="310" y="80" width="10" height="10"/>
    <rect x="350" y="80" width="10" height="10"/>
    <rect x="430" y="80" width="10" height="10"/>
    <rect x="460" y="80" width="10" height="10"/>
    <rect x="540" y="80" width="10" height="10"/>
    <rect x="570" y="80" width="30" height="10"/>
    <rect x="620" y="80" width="10" height="10"/>
    <rect x="690" y="80" width="10" height="10"/>
    <rect x="720" y="80" width="10" height="10"/>
    <rect x="20" y="90" width="10" height="10"/>
    <rect x="40" y="90" width="20" height="10"/>
    <rect x="70" y="90" width="10" height="10"/>
    <rect x="90" y="90" width="10" height="10"/>
    <rect x="280" y="90" width="10" height="10"/>
    <rect x="340" y="90" width="10" height="10"/>
    <rect x="430" y="90" width="10" height="10"/>
    <rect x="460" y="90" width="10" height="10"/>
    <rect x="540" y="90" width="10" height="10"/>
    <rect x="570" y="90" width="10" height="10"/>
    <rect x="590" y="90" width="10" height="10"/>
    <rect x="620" y="90" width="10" height="10"/>
    <rect x="690" y="90" width="10" height="10"/>
    <rect x="720" y="90" width="10" height="10"/>
    <rect x="20" y="100" width="10" height="10"/>
    <rect x="40" y="100" width="20" height="10"/>
    <rect x="70" y="100" width="10" height="10"/>
    <rect x="90" y="100" width="10" height="10"/>
    <rect x="280" y="100" width="10" height="10"/>
    <rect x="330" y="100" width="10" height="10"/>
    <rect x="430" y="100" width="10" height="10"/>
    <rect x="460" y="100" width="10" height="10"/>
    <rect x="540" y="100" width="10" height="10"/>
    <rect x="620" y="100" width="10" height="10"/>
    <rect x="690" y="100" width="10" height="10"/>
    <rect x="720" y="100" width="10" height="10"/>
    <rect x="20" y="110" width="10" height="10"/>
    <rect x="70" y="110" width="10" height="10"/>
    <rect x="90" y="110" width="10" height="10"/>
    <rect x="280" y="110" width="10" height="10"/>
    <rect x="340" y="110" width="10" height="10"/>
    <rect x="430" y="110" width="10" height="10"/>
    <rect x="460" y="110" width="10" height="10"/>
    <rect x="540" y="110" width="10" height="10"/>
    <rect x="620" y="110" width="10" height="10"/>
    <rect x="690" y="110" width="10" height="10"/>
    <rect x="720" y="110" width="10" height="10"/>
    <rect x="20" y="120" width="10" height="10"/>
    <rect x="70" y="120" width="10" height="10"/>
    <rect x="90" y="120" width="10" height="10"/>
    <rect x="280" y="120" width="10" height="10"/>
    <rect x="310" y="120" width="10" height="10"/>
    <rect x="350" y="120" width="10" height="10"/>
    <rect x="420" y="120" width="20" height="10"/>
    <rect x="460" y="120" width="20" height="10"/>
    <rect x="540" y="120" width="10" height="10"/>
    <rect x="580" y="120" width="10" height="10"/>
    <rect x="620" y="120" width="10" height="10"/>
    <rect x="680" y="120" width="20" height="10"/>
    <rect x="720" y="120" width="20" height="10"/>
    <rect x="20" y="130" width="50" height="10"/>
    <rect x="80" y="130" width="20" height="10"/>
    <rect x="280" y="130" width="10" height="10"/>
    <rect x="310" y="130" width="20" height="10"/>
    <rect x="360" y="130" width="10" height="10"/>
    <rect x="410" y="130" width="10" height="10"/>
    <rect x="480" y="130" width="10" height="10"/>
    <rect x="540" y="130" width="10" height="10"/>
    <rect x="570" y="130" width="10" height="10"/>
    <rect x="590" y="130" width="10" height="10"/>
    <rect x="620" y="130" width="10" height="10"/>
    <rect x="670" y="130" width="10" height="10"/>
    <rect x="740" y="130" width="10" height="10"/>
    <rect x="280" y="140" width="10" height="10"/>
    <rect x="310" y="140" width="10" height="10"/>
    <rect x="330" y="140" width="10" height="10"/>
    <rect x="360" y="140" width="10" height="10"/>
    <rect x="410" y="140" width="10" height="10"/>
    <rect x="480" y="140" width="10" height="10"/>
    <rect x="540" y="140" width="10" height="10"/>
    <rect x="560" y="140" width="10" height="10"/>
    <rect x="600" y="140" width="10" height="10"/>
    <rect x="620" y="140" width="10" height="10"/>
    <rect x="670" y="140" width="10" height="10"/>
    <rect x="740" y="140" width="10" height="10"/>
    <rect x="290" y="150" width="20" height="10"/>
    <rect x="340" y="150" width="20" height="10"/>
    <rect x="420" y="150" width="60" height="10"/>
    <rect x="550" y="150" width="10" height="10"/>
    <rect x="610" y="150" width="10" height="10"/>
    <rect x="680" y="150" width="60" height="10"/>
  </g>
</svg>